<svg width="173" height="32" viewBox="0 0 173 32" fill="none" xmlns="http://www.w3.org/2000/svg">
<g clip-path="url(#clip0)">
<path d="M43.4297 22.2972C42.4747 22.2972 41.9971 21.9601 41.9971 21.2328C41.9971 21.0554 42.0502 20.8426 42.174 20.5942L45.2691 13.5H54.4308C55.3681 13.5 55.8456 14.1341 55.8456 14.826C55.8456 15.0211 55.7925 15.234 55.6687 15.5L54.9966 16.9756H58.8699L59.772 15.0211C59.8604 14.755 59.8958 14.5244 59.8958 14.2938C59.8958 12.6962 57.8035 12 56.5 12H41.9971L38.1238 21.02C38.0354 21.2683 38 21.499 38 21.7295C38 22.4568 38.4068 23.0421 39.2027 23.4678C39.8394 23.8049 40.5645 23.9823 41.378 23.9823H55.6687L56.4469 22.2972H43.4297ZM74 12H63.1229L57.7911 24H61.7528L66.3935 13.5H72C72.9728 13.5 73.3197 14.4391 73.3197 15.1486C73.3197 15.3614 73.2667 15.5743 73.1605 15.7871L72.7786 16.6496H76.6696L77.2815 15.3082C77.3699 15.0599 77.4053 14.8292 77.4053 14.5986C77.4053 13.0874 76 12 74 12ZM94.5787 12H80.2174L76.1495 21.02C76.0611 21.2151 76.0257 21.4457 76.0257 21.7295C76.0257 22.4568 76.4325 23.0244 77.2284 23.4501C77.8828 23.8049 78.6079 23.9823 79.4039 23.9823H93.7298L97.6562 15.2905C97.7447 15.0244 97.78 14.7938 97.78 14.5632C97.78 13.2708 96.5 12 94.5787 12ZM90.5463 22.2972H81.4731C80.5358 22.2972 80.0583 21.9424 80.0583 21.2328C80.0583 21.02 80.1114 20.8071 80.2174 20.5942L83.1887 13.5H92.3503C93.2523 13.5 93.7121 14.4212 93.7121 15.0954C93.7121 15.2905 93.6591 15.5211 93.5353 15.7871L90.5463 22.2972ZM100.415 24H120.737L126 12H122L117.518 22.2972H110.974L115.5 12H111.5L106.977 22.2972H102.503C101.547 22.2972 101.07 21.9424 101.07 21.2328C101.07 21.02 101.123 20.8071 101.228 20.5942L105 12H101L97.1256 21.0731C97.0372 21.3216 97.0018 21.5521 97.0018 21.7827C97.0018 22.51 97.4263 23.0954 98.2575 23.5034C98.8766 23.8404 99.6194 24 100.415 24ZM148.805 8L144.401 8.86918L142.97 12.0444H132.694C129.5 12 127.765 13.5973 126.769 15.3082L123.567 22.3326C123.478 23.4324 124.381 24 126.255 24H141.554L148.805 8ZM129.014 22.0843C128.112 21.9956 127.706 21.6941 127.812 21.1619L130.27 15.7871C130.608 15.0552 131.5 13.5 133.033 13.5H142L138.423 22.0843H129.014ZM147.779 24L153.209 12.0444L148.805 12.8781L143.765 24H147.779ZM153.882 10.5366L155.048 8L150.644 8.86918L149.513 11.388L153.882 10.5366ZM169.5 12H155.139L149.955 24H153.952L158.445 13.5H167.5C168.455 13.5 168.932 14.4391 168.932 15.1486C168.932 15.3614 168.88 15.5743 168.773 15.7871L165.023 24H168.95L172.877 15.3082C172.965 15.1131 173 14.8825 173 14.5986C173 13.1712 171.5 12 169.5 12Z" fill="#2E3340"/>
<g clip-path="url(#clip1)">
<path d="M33.1161 11.9018C31.9882 11.7634 30.879 11.6932 29.8153 11.6959C26.3623 11.7044 20.4614 12.798 20.4614 17.3877L21.5634 17.6018C21.5486 17.8007 21.5486 18.0005 21.5634 18.1994C21.5634 18.5671 21.5634 18.9195 21.5634 19.2413L20.4614 19.1633C20.7537 23.3061 23.1819 24.4509 25.4687 24.5122C26.5627 24.5122 27.5931 24.395 28.6019 23.9299C28.6363 23.9137 28.6643 23.8857 28.6809 23.8506C28.6975 23.8155 28.7018 23.7755 28.693 23.7375C28.6843 23.6995 28.663 23.6659 28.6328 23.6423C28.6026 23.6187 28.5655 23.6066 28.5276 23.6082C26.4191 23.9146 24.2614 22.2028 24.2614 18.5714C24.2614 13.9747 27.9188 12.2083 33.1606 12.2083C33.2794 12.2236 33.2942 11.9325 33.1161 11.9018ZM21.6307 20.051C22.2153 20.051 22.7068 20.051 23.3845 20.051C23.5279 21.284 24.0221 22.7178 24.9044 23.5622C24.0819 23.4578 23.3185 23.0668 22.7406 22.4538C22.1628 21.8408 21.709 20.9023 21.6307 20.051ZM23.5829 16.1768C23.5829 16.33 23.4641 16.6058 23.4047 16.8816H22.7068C22.3335 16.8642 21.9615 16.8233 21.5931 16.759C21.5984 16.7235 21.5984 16.6873 21.5931 16.6518C22.0534 14.1849 24.4144 13.1583 26.7012 12.7293C25.9651 13.0275 25.3031 13.4919 24.7635 14.0885C24.2239 14.685 23.8205 15.3985 23.5829 16.1768Z" fill="#2E3340"/>
<path d="M35.4991 8.22934C30.8744 6.88695 11.4002 5.25942 11.4002 16.5043C12.0558 16.6004 12.5111 16.7477 12.8618 16.7958C12.8151 17.6519 12.8618 18.59 12.8618 19.459L11.1079 19.1631C11.1079 25.6733 15.6881 27.7246 19.3014 27.7246C19.898 27.7218 20.4938 27.679 21.0852 27.5965C22.5736 27.4258 24.0173 26.9585 25.3389 26.2197C25.3678 26.1984 25.3895 26.1682 25.401 26.1332C25.4126 26.0983 25.4134 26.0604 25.4032 26.0249C25.3931 25.9895 25.3726 25.9583 25.3446 25.9358C25.3167 25.9133 25.2827 25.9006 25.2474 25.8995C22.1982 26.5399 18.0207 25.6754 18.0207 18.1189C18.0207 8.065 31.5961 8.72564 35.5449 8.56554C35.5786 8.55016 35.6065 8.52359 35.6244 8.48992C35.6423 8.45624 35.6492 8.41732 35.644 8.37914C35.6388 8.34096 35.6219 8.30562 35.5957 8.27856C35.5695 8.25149 35.5356 8.23421 35.4991 8.22934ZM19.3167 26.8761C17.5629 26.993 15.8345 26.3908 14.4951 25.1964C13.1557 24.0019 12.3099 22.3084 12.1357 20.4723C13.2944 20.6324 14.7733 20.7605 16.0082 20.8245C16.0696 22.0889 16.4471 23.314 17.1029 24.3764C17.7586 25.4388 18.6694 26.301 19.7435 26.8761H19.3167ZM16.4809 14.7249C16.3894 15.0771 16.2522 15.7015 16.1302 16.2458L14.3007 16.0537L12.4559 15.8136C12.4559 9.93451 21.631 7.91821 25.1387 7.91821C20.3819 9.08689 17.2584 11.491 16.4809 14.6769V14.7249Z" fill="#2E3340"/>
<path d="M37.8786 4.90399C32.2437 2.9067 25.8509 1.92518 19.8769 2.00448C11.2405 2.00448 0.292308 4.66774 0 13.8412L2.33846 14.4331C2.04615 15.6167 2.04615 17.9841 2.04615 17.9841C2.04615 17.9841 0.712918 17.5754 0 17.3922C0 28.2426 6.13104 30.9999 12.0316 30.9999C14.4145 31.0073 16.7789 30.5781 19.0091 29.7333C19.0442 29.7171 19.0728 29.6892 19.0898 29.6542C19.1067 29.6193 19.1111 29.5795 19.1022 29.5416C19.0932 29.5038 19.0715 29.4703 19.0406 29.4467C19.0098 29.4232 18.9719 29.4112 18.9332 29.4128C17.0978 29.4128 15.6417 30.0232 12.7293 27.8867C7.07149 23.7816 7.76924 13.099 14.2462 8.44449C20.9203 3.53053 35.3455 5.0566 37.818 5.20921C37.8379 5.21322 37.8584 5.21324 37.8783 5.20927C37.8982 5.20531 37.9172 5.19743 37.9341 5.18609C37.951 5.17476 37.9655 5.16018 37.9768 5.1432C37.9881 5.12622 37.996 5.10716 38 5.08712C38.004 5.06708 38.004 5.04645 38 5.0264C37.9961 5.00635 37.9883 4.98728 37.977 4.97027C37.9657 4.95327 37.9512 4.93866 37.9344 4.92729C37.9175 4.91592 37.8986 4.908 37.8786 4.90399ZM12.0922 30.0843C5.08442 30.0843 1.50294 26.1452 1.16923 18.5759C3.0722 19.0725 4.86692 19.5683 6.81362 19.8443C6.69633 22.8107 7.71116 25.7099 9.65012 27.9477C10.6416 28.9449 11.86 29.6835 13.1995 30.0995L12.0922 30.0843ZM27.9736 3.72892C19.4333 3.72892 9.53941 4.80092 7.6 14.4331C7.6 14.4331 2.33846 13.5453 1.16923 13.2494C2.63077 1.11672 22.8 2.03213 30.9846 3.72892H27.9736Z" fill="#2E3340"/>
</g>
</g>
<defs>
<clipPath id="clip0">
<path d="M0 0H173V32H0V0Z" fill="white"/>
</clipPath>
<clipPath id="clip1">
<rect y="-3" width="38" height="38" fill="white"/>
</clipPath>
</defs>
</svg>
